<mxfile host="app.diagrams.net" agent="Mozilla/5.0 (Windows NT 10.0; Win64; x64) AppleWebKit/537.36 (KHTML, like Gecko) Chrome/135.0.0.0 Safari/537.36" version="26.2.14">
  <diagram name="Página-1" id="dAbh26XUbbhlyx9BKG3H">
    <mxGraphModel dx="448" dy="649" grid="1" gridSize="10" guides="1" tooltips="1" connect="1" arrows="1" fold="1" page="1" pageScale="1" pageWidth="827" pageHeight="1169" math="0" shadow="0">
      <root>
        <mxCell id="0" />
        <mxCell id="1" parent="0" />
        <mxCell id="u501a1g8dIi9VbA374N--1" value="Cliente" style="shape=umlActor;verticalLabelPosition=bottom;verticalAlign=top;html=1;" vertex="1" parent="1">
          <mxGeometry x="160" y="340" width="30" height="60" as="geometry" />
        </mxCell>
        <mxCell id="u501a1g8dIi9VbA374N--2" value="Registrarse" style="ellipse;whiteSpace=wrap;html=1;fontSize=10;" vertex="1" parent="1">
          <mxGeometry x="330" y="350" width="100" height="60" as="geometry" />
        </mxCell>
        <mxCell id="u501a1g8dIi9VbA374N--3" value="" style="endArrow=none;html=1;edgeStyle=orthogonalEdgeStyle;rounded=0;exitX=0.4;exitY=0.683;exitDx=0;exitDy=0;exitPerimeter=0;entryX=0;entryY=0.5;entryDx=0;entryDy=0;" edge="1" parent="1" source="u501a1g8dIi9VbA374N--1" target="u501a1g8dIi9VbA374N--2">
          <mxGeometry relative="1" as="geometry">
            <mxPoint x="320" y="580" as="sourcePoint" />
            <mxPoint x="290" y="570" as="targetPoint" />
          </mxGeometry>
        </mxCell>
        <mxCell id="u501a1g8dIi9VbA374N--8" value="Confirmar reserva (crear expediente y pagar)" style="ellipse;whiteSpace=wrap;html=1;fontSize=10;" vertex="1" parent="1">
          <mxGeometry x="460" y="500" width="100" height="60" as="geometry" />
        </mxCell>
        <mxCell id="u501a1g8dIi9VbA374N--9" value="Seleccionar póliza de seguro (opcional)" style="ellipse;whiteSpace=wrap;html=1;fontSize=10;" vertex="1" parent="1">
          <mxGeometry x="150" y="690" width="100" height="60" as="geometry" />
        </mxCell>
        <mxCell id="u501a1g8dIi9VbA374N--10" value="Consultar opciones de seguro" style="ellipse;whiteSpace=wrap;html=1;fontSize=10;" vertex="1" parent="1">
          <mxGeometry x="450" y="310" width="100" height="60" as="geometry" />
        </mxCell>
        <mxCell id="u501a1g8dIi9VbA374N--11" value="Confirmar carrito (pre-reserva)" style="ellipse;whiteSpace=wrap;html=1;fontSize=10;" vertex="1" parent="1">
          <mxGeometry x="230" y="555" width="100" height="60" as="geometry" />
        </mxCell>
        <mxCell id="u501a1g8dIi9VbA374N--12" value="Eliminar productos del carrito" style="ellipse;whiteSpace=wrap;html=1;fontSize=10;" vertex="1" parent="1">
          <mxGeometry x="460" y="700" width="100" height="60" as="geometry" />
        </mxCell>
        <mxCell id="u501a1g8dIi9VbA374N--13" value="Añadir productos al carrito" style="ellipse;whiteSpace=wrap;html=1;fontSize=10;" vertex="1" parent="1">
          <mxGeometry x="440" y="110" width="100" height="60" as="geometry" />
        </mxCell>
        <mxCell id="u501a1g8dIi9VbA374N--14" value="Consultar productos turísticos" style="ellipse;whiteSpace=wrap;html=1;fontSize=10;" vertex="1" parent="1">
          <mxGeometry x="450" y="410" width="100" height="60" as="geometry" />
        </mxCell>
        <mxCell id="u501a1g8dIi9VbA374N--15" value="Iniciar Sesión" style="ellipse;whiteSpace=wrap;html=1;fontSize=10;" vertex="1" parent="1">
          <mxGeometry x="450" y="220" width="100" height="60" as="geometry" />
        </mxCell>
        <mxCell id="u501a1g8dIi9VbA374N--16" value="Consultar reservas" style="ellipse;whiteSpace=wrap;html=1;fontSize=10;" vertex="1" parent="1">
          <mxGeometry x="140" y="850" width="100" height="60" as="geometry" />
        </mxCell>
        <mxCell id="u501a1g8dIi9VbA374N--17" value="Cancelar reservas" style="ellipse;whiteSpace=wrap;html=1;fontSize=10;" vertex="1" parent="1">
          <mxGeometry x="460" y="600" width="100" height="60" as="geometry" />
        </mxCell>
        <mxCell id="u501a1g8dIi9VbA374N--18" value="package" style="shape=folder;fontStyle=1;spacingTop=10;tabWidth=40;tabHeight=14;tabPosition=left;html=1;whiteSpace=wrap;" vertex="1" parent="1">
          <mxGeometry x="310" y="750" width="190" height="230" as="geometry" />
        </mxCell>
        <mxCell id="u501a1g8dIi9VbA374N--19" value="Use Case" style="ellipse;whiteSpace=wrap;html=1;" vertex="1" parent="1">
          <mxGeometry x="310" y="660" width="80" height="30" as="geometry" />
        </mxCell>
      </root>
    </mxGraphModel>
  </diagram>
</mxfile>
